# xmcd CD database file
#
# Track frame offsets:
#	150
#	8662
#	24243
#	41658
#	56526
#	76921
#	103013
#	125929
#	143217
#	162928
#	187474
#	206362
#	215597
#	234391
#	254486
#
# Disc length: 3575 seconds
#
# Revision: 0
# Processed by: cddbd v1.4PL0 Copyright (c) Steve Scherf et al.
# Submitted via: ACXtractor (MTCDDB.DLL V2003.07.15)
#
DISCID=d40df50f
DTITLE=Alicia Keys - Songs in A minor
DYEAR=2001
DGENRE=R&B
TTITLE0=Piano and I
TTITLE1=Girlfriend
TTITLE2=How come you don't call me
TTITLE3=Fallin
TTITLE4=Troubles
TTITLE5=Rock Wit u 
TTITLE6=A woman's worth
TTITLE7=Jane Doe
TTITLE8=Goodbye
TTITLE9=The Life
TTITLE10=Mr man
TTITLE11=Never felt this way 
TTITLE12=Butterflies
TTITLE13=Why do i feel so sad?
TTITLE14=Caged Bird
EXTD=ID3G:  14 YEAR: 2001
EXTT0=
EXTT1=
EXTT2=
EXTT3=
EXTT4=
EXTT5=
EXTT6=
EXTT7=
EXTT8=
EXTT9=
EXTT10=
EXTT11=
EXTT12=
EXTT13=
EXTT14=
PLAYORDER=
